# xmcd CD database file
#
# Track frame offsets:
#	150
#	19232
#	41097
#	62759
#	86889
#	112408
#	135522
#	164790
#	184267
#	207833
#	229226
#	248748
#	269515
#	286780
#	306562
#
# Disc length: 4269 seconds
#
# Revision: 0
# Processed by: cddbd v1.5.2PL0 Copyright (c) Steve Scherf et al.
# Submitted via: CDex 1.51
#
DISCID=eb10ab0f
DTITLE=VA - Jazz in The Lobby Bar
DYEAR=2012
DGENRE=Jazz
TTITLE0=101 MIRANDA SAGE - The Night Has A Thousand Eyes
TTITLE1=102 CONNIE EVINGSON - Killing Me Softly With His Song
TTITLE2=103 CAROL WELSMAN - Always On My Mind
TTITLE3=104 MADDY WINER and CYRUS CHESTNUT - I'll Be There
TTITLE4=105 ARLENE BARDELLE - Will You Still Love Me Tomorrow
TTITLE5=106 CYNTHIA KAAY BENNETT - Shattered Love
TTITLE6=107 CONNIE EVINGSON - Besame Mucho
TTITLE7=108 BARBARA CROW - True Colour
TTITLE8=109 CAROL WELSMAN - I Can't Stop Lovin' You
TTITLE9=110 DENNISE NEILL - Autumn Leaves
TTITLE10=111 CONNIE EVINGSON - In A Sentimental Mood
TTITLE11=112 CAROL WELSMAN - Every Breath You Take
TTITLE12=113 CARTER CALVERT and THE ROGER COHEN TRIO - Time After Time
TTITLE13=114 DENNISE NEILL - Beyond The Sea
TTITLE14=115 FERN ELLIS - Life Is Just A Bowl Of Cherries
EXTD=YEAR: 2012
EXTT0=
EXTT1=
EXTT2=
EXTT3=
EXTT4=
EXTT5=
EXTT6=
EXTT7=
EXTT8=
EXTT9=
EXTT10=
EXTT11=
EXTT12=
EXTT13=
EXTT14=
PLAYORDER=
